<?xml version="1.0" standalone="no"?>
<!DOCTYPE svg PUBLIC "-//W3C//DTD SVG 20010904//EN"
 "http://www.w3.org/TR/2001/REC-SVG-20010904/DTD/svg10.dtd">
<svg version="1.0" xmlns="http://www.w3.org/2000/svg"
 width="1440.000000pt" height="810.000000pt" viewBox="0 0 1440.000000 810.000000"
 preserveAspectRatio="xMidYMid meet">

<g transform="translate(0.000000,810.000000) scale(0.100000,-0.100000)"
fill="#000000" stroke="none">
<path d="M0 4050 l0 -4050 7200 0 7200 0 0 519 c0 455 -2 520 -15 531 -9 7
-13 20 -10 28 3 9 0 12 -9 9 -8 -3 -21 2 -30 12 -14 15 -14 18 -1 18 8 0 11
-5 8 -10 -4 -6 -1 -7 7 -2 9 6 11 4 5 -5 -6 -9 -4 -11 4 -6 18 11 -18 49 -41
43 -17 -5 -51 24 -46 39 4 13 -28 55 -35 47 -4 -3 1 -16 10 -27 l18 -21 -23
19 c-12 11 -20 26 -17 34 3 9 0 12 -9 9 -8 -3 -21 2 -30 12 -14 15 -14 18 -1
18 8 0 11 -5 8 -10 -4 -6 -1 -7 7 -2 9 6 11 4 5 -5 -6 -9 -4 -11 4 -6 18 11
-18 49 -41 43 -17 -5 -51 24 -46 39 4 13 -28 55 -35 47 -4 -3 1 -16 10 -27
l18 -21 -23 19 c-12 11 -20 26 -17 34 3 9 0 12 -9 9 -8 -3 -21 2 -30 12 -14
15 -14 18 -1 18 8 0 11 -5 8 -10 -4 -6 -1 -7 7 -2 9 6 11 4 5 -5 -6 -9 -4 -11
4 -6 18 11 -18 49 -41 43 -17 -5 -51 24 -46 39 4 13 -28 55 -35 47 -4 -3 1
-16 10 -27 l18 -21 -23 19 c-12 11 -20 26 -18 33 3 8 0 13 -7 12 -21 -4 -50
13 -37 21 15 9 -36 71 -54 64 -9 -3 -13 3 -12 18 0 14 -4 22 -11 21 -7 -2 -13
1 -13 7 0 5 -8 6 -17 3 -12 -5 -15 -2 -11 8 8 20 -67 95 -78 78 -5 -8 -3 -10
6 -4 9 6 11 4 5 -5 -5 -8 -4 -11 2 -7 5 3 10 0 10 -8 0 -13 -3 -12 -18 1 -10
9 -16 21 -13 25 3 5 -1 9 -9 9 -8 0 -22 10 -33 23 -19 22 -19 22 2 4 26 -22
33 -22 30 0 -3 18 -6 19 -47 22 -17 1 -19 4 -10 15 9 11 9 16 0 22 -7 4 -9 3
-5 -4 3 -6 2 -13 -4 -17 -6 -4 -10 -85 -10 -216 0 -179 -3 -220 -20 -287 -50
-185 -147 -325 -290 -415 -76 -47 -205 -91 -244 -82 -17 4 -53 7 -81 7 -27 0
-97 4 -155 9 -58 5 -161 14 -230 19 -180 14 -312 27 -505 50 -93 11 -366 43
-605 71 -239 27 -525 61 -635 74 -110 13 -281 33 -380 45 -226 26 -559 66
-733 87 l-133 16 -48 -26 c-26 -14 -66 -29 -89 -33 l-42 -7 0 -186 c-1 -231
-14 -312 -71 -429 -35 -72 -57 -102 -133 -177 -105 -104 -186 -152 -313 -184
-81 -21 -93 -21 -1333 -19 l-1251 3 1 292 c0 187 -3 294 -10 298 -6 4 -11 -93
-13 -287 l-2 -293 0 300 0 300 -29 25 c-43 36 -56 78 -56 180 0 109 14 149 66
184 21 14 34 26 28 26 -5 0 -16 -6 -24 -12 -12 -11 -12 -10 -2 4 9 11 12 58
11 155 0 76 -3 141 -6 145 -6 12 -6 235 1 246 5 9 -94 35 -103 26 -3 -2 1 -10
7 -16 7 -7 12 -27 12 -45 0 -32 -1 -33 -44 -33 -39 0 -45 3 -50 25 -8 30 -48
49 -84 40 -18 -4 -23 -11 -20 -32 3 -22 14 -30 71 -53 92 -38 113 -54 127 -95
10 -30 9 -41 -7 -73 -20 -40 -87 -82 -133 -82 -88 0 -163 57 -158 119 3 34 5
36 41 39 33 3 38 0 48 -25 5 -15 16 -31 22 -35 21 -13 74 -9 87 7 19 22 -8 48
-78 74 -86 32 -122 70 -122 128 0 36 51 103 78 103 24 0 9 10 -70 44 -160 70
-290 165 -506 369 l-153 144 -2 299 -1 299 -3 -275 c-3 -267 -7 -301 -35 -284
-4 3 -7 134 -6 292 l3 287 5 -290 5 -290 3 276 c1 187 6 279 13 286 14 14 42
5 32 -10 -3 -5 -1 -7 4 -4 14 9 61 -15 153 -76 69 -46 217 -164 258 -206 21
-22 212 -185 268 -228 96 -75 280 -151 345 -141 l24 3 0 137 c0 130 1 137 20
139 11 0 186 4 389 8 l369 6 65 70 c36 39 124 135 196 215 461 511 742 717
1106 810 25 7 48 17 52 24 4 6 8 156 8 334 0 329 10 481 36 554 8 22 14 59 14
82 0 52 22 86 53 81 12 -3 49 7 82 21 53 22 55 24 22 19 -21 -3 -45 -9 -53
-12 -32 -12 -11 29 44 84 95 94 117 102 552 183 91 17 208 40 260 50 52 11
158 31 235 45 77 15 194 37 260 50 66 13 145 27 175 31 30 4 58 9 63 10 4 1
10 2 15 3 4 2 32 3 63 3 31 0 110 7 175 17 106 16 119 16 123 2 2 -8 -2 -17
-8 -19 -6 -2 -11 -9 -11 -16 0 -6 37 24 82 67 231 221 481 345 760 376 94 11
223 6 303 -10 28 -6 61 -12 75 -15 47 -10 7 15 -60 36 -73 24 -222 41 -278 33
-20 -3 -35 -3 -32 0 3 3 61 33 129 67 500 249 1037 403 1590 455 298 28 741
19 1031 -21 96 -14 121 -21 154 -45 43 -32 60 -31 31 1 -17 18 -17 20 -2 14
16 -6 17 56 17 960 l0 966 -7200 0 -7200 0 0 -4050z m9104 3041 c20 -85 36
-156 36 -158 0 -3 -23 14 -51 38 -45 37 -52 41 -61 26 -24 -45 -125 -169 -189
-234 -210 -215 -517 -315 -696 -228 -131 65 -160 198 -60 279 34 27 46 31 102
31 58 0 62 -1 53 -18 -15 -30 -52 -41 -89 -28 -43 15 -74 -5 -90 -59 -10 -34
-10 -46 4 -74 29 -62 110 -106 193 -106 l44 0 0 105 0 105 55 0 54 0 3 -89 3
-89 33 13 32 14 0 121 0 120 49 0 48 0 7 -46 c3 -26 6 -69 6 -96 l0 -49 29 17
29 17 7 134 7 133 49 0 49 0 0 -87 0 -87 36 35 c35 33 156 182 162 199 2 4
-25 6 -60 4 l-63 -5 114 110 c63 61 116 109 117 108 1 -1 18 -71 38 -156z
m1696 -166 l0 -114 113 -3 c104 -3 112 -4 112 -23 0 -19 -8 -20 -112 -23
l-112 -3 -3 -112 c-3 -104 -4 -112 -23 -112 -19 0 -20 8 -23 113 l-3 112 -102
0 c-107 0 -134 8 -124 34 5 13 25 16 117 16 l110 0 0 108 c0 60 3 112 7 115 3
4 15 7 25 7 16 0 18 -10 18 -115z m-9093 -179 c87 -41 127 -126 121 -261 l-3
-70 -75 0 -75 0 -5 88 c-4 73 -9 91 -24 103 -29 21 -82 18 -106 -6 -19 -19
-20 -33 -20 -345 0 -312 1 -326 20 -345 12 -12 33 -20 55 -20 62 0 75 24 75
140 l0 100 80 0 80 0 0 -93 c0 -215 -79 -306 -258 -295 -119 6 -191 67 -212
177 -13 70 -13 602 0 672 22 114 105 179 230 179 48 0 79 -7 117 -24z m2397
12 c95 -29 150 -130 144 -270 l-3 -73 -75 0 -75 0 -5 88 c-4 73 -9 91 -24 103
-29 21 -82 18 -106 -6 -19 -19 -20 -33 -20 -345 0 -312 1 -326 20 -345 12 -12
33 -20 55 -20 64 0 75 23 75 154 l0 115 -32 3 -33 3 0 75 0 75 110 0 110 0 3
-184 c3 -209 -8 -267 -59 -325 -43 -50 -101 -69 -191 -64 -89 5 -141 28 -178
80 -44 60 -50 113 -50 436 1 315 6 364 46 425 49 74 178 108 288 75z m1517
-15 c46 -24 58 -37 83 -86 26 -51 30 -69 30 -150 l1 -92 -75 0 -75 0 -5 83
c-4 73 -8 86 -29 103 -30 24 -72 24 -102 0 l-24 -19 0 -327 0 -327 24 -19 c32
-26 77 -24 106 6 24 23 25 31 25 134 l0 110 -32 3 -33 3 -3 78 -3 78 113 -3
113 -3 0 -205 c0 -203 -1 -205 -27 -257 -43 -81 -103 -113 -215 -113 -101 0
-163 34 -206 115 -21 39 -22 51 -22 400 0 349 1 361 22 400 43 81 103 113 214
114 52 1 76 -4 120 -26z m-3521 -198 l0 -215 85 0 85 0 0 215 0 215 85 0 85 0
0 -505 0 -505 -85 0 -85 0 0 215 0 215 -85 0 -85 0 0 -215 0 -215 -85 0 -85 0
0 505 0 505 85 0 85 0 0 -215z m820 208 c0 -9 17 -116 59 -378 17 -104 44
-275 61 -380 16 -104 33 -202 36 -217 l6 -28 -85 0 -85 0 -13 90 -13 91 -95
-3 -96 -3 -8 -65 c-13 -117 -7 -110 -92 -110 -41 0 -75 3 -75 8 0 4 9 61 20
127 11 66 45 278 75 470 31 193 58 362 61 378 l6 27 119 0 c65 0 119 -3 119
-7z m461 -63 c46 -177 131 -485 135 -489 2 -2 4 123 4 278 l0 282 73 -3 72 -3
0 -500 0 -500 -84 0 -85 0 -18 65 c-33 117 -56 202 -110 404 l-53 199 -3 -336
-2 -337 -75 0 -75 0 0 505 0 506 102 -3 102 -3 17 -65z m1139 -435 l0 -505
-80 0 -80 0 0 505 0 505 80 0 80 0 0 -505z m334 488 c3 -10 12 -43 20 -73 58
-223 119 -447 124 -457 4 -6 7 113 7 265 l0 277 73 3 72 3 0 -506 0 -505 -83
0 -84 0 -62 233 c-35 127 -77 284 -95 347 l-31 114 -3 -347 -2 -348 -73 3 -72
3 -3 490 c-1 270 0 496 3 503 3 8 34 12 104 12 86 0 100 -2 105 -17z m1676
-58 l0 -75 -80 0 -80 0 0 -430 0 -430 -80 0 -80 0 0 430 0 430 -85 0 -85 0 0
75 0 75 245 0 245 0 0 -75z m250 -140 l0 -215 85 0 85 0 0 215 0 215 85 0 85
0 0 -505 0 -505 -85 0 -85 0 0 215 0 215 -85 0 -85 0 0 -215 0 -216 -82 3 -83
3 -3 490 c-1 270 0 496 3 503 3 8 30 12 85 12 l80 0 0 -215z m900 140 l0 -74
-137 -3 -138 -3 -3 -132 -3 -133 111 0 110 0 0 -75 0 -74 -107 -3 -108 -3 -3
-142 -3 -143 141 0 140 0 0 -75 0 -75 -220 0 -220 0 0 505 0 505 220 0 220 0
0 -75z m-5144 -1229 c28 -13 61 -37 73 -54 48 -68 51 -93 51 -438 0 -302 -1
-327 -21 -378 -35 -94 -106 -136 -230 -136 -106 1 -188 55 -220 147 -20 55
-20 681 0 736 18 52 67 106 116 128 60 28 166 25 231 -5z m2485 13 c56 -19
100 -59 125 -113 24 -51 24 -54 24 -385 0 -234 -4 -346 -12 -374 -17 -55 -82
-122 -133 -136 -50 -14 -139 -14 -187 -1 -53 15 -97 56 -124 115 -24 49 -24
54 -24 390 0 337 0 340 24 391 25 53 69 94 121 112 41 14 144 15 186 1z
m-3518 -136 c9 -76 26 -236 39 -355 12 -119 25 -215 28 -213 4 2 10 37 13 77
4 40 18 192 32 338 14 146 25 271 25 278 0 8 23 12 79 12 l79 0 6 -37 c5 -32
29 -273 63 -626 3 -37 8 -65 10 -63 3 2 13 89 24 193 39 384 50 489 55 511 4
20 10 22 75 22 l70 0 -6 -47 c-3 -27 -19 -172 -35 -323 -17 -151 -37 -329 -45
-395 -7 -66 -17 -148 -20 -182 l-7 -63 -108 0 -108 0 -7 68 c-18 172 -44 395
-48 399 -3 2 -10 -55 -17 -127 -7 -72 -18 -176 -24 -233 l-11 -102 -112 -3
c-62 -1 -113 1 -113 6 0 5 -4 44 -10 88 -5 43 -23 203 -40 354 -16 151 -37
332 -45 401 -8 69 -15 134 -15 143 0 13 12 16 79 16 l78 0 16 -137z m1646 107
c65 -36 92 -94 98 -207 7 -123 -9 -194 -55 -242 l-37 -38 36 -34 c47 -44 57
-93 61 -302 l3 -158 -80 3 -80 3 -7 40 c-4 22 -7 97 -7 167 -1 74 -6 138 -13
153 -12 27 -67 49 -108 43 l-25 -3 -3 -202 -2 -203 -80 0 -80 0 0 506 0 506
168 -4 c156 -3 170 -5 211 -28z m381 -400 l0 -429 128 -3 127 -3 0 -70 0 -70
-212 -3 -213 -2 0 505 0 505 85 0 85 0 0 -430z m717 403 c45 -24 72 -58 93
-113 18 -47 26 -569 11 -672 -14 -87 -47 -141 -106 -172 -36 -19 -57 -21 -210
-21 l-170 0 -3 503 -2 504 172 -4 c156 -3 177 -5 215 -25z m1463 -48 l0 -75
-130 0 -130 0 0 -147 0 -148 97 0 98 0 3 -77 3 -78 -101 0 -100 0 0 -205 0
-205 -85 0 -85 0 0 505 0 505 215 0 215 0 0 -75z m340 -1483 c49 -24 73 -71
74 -146 l1 -61 -47 -3 -48 -3 0 46 c0 65 -13 85 -55 85 -28 0 -36 -5 -40 -22
-3 -13 -4 -115 -3 -228 l3 -205 35 -3 c47 -5 60 16 60 99 0 62 -2 68 -22 71
-20 3 -23 9 -23 48 l0 45 70 0 70 0 0 -130 c0 -95 -4 -138 -15 -160 -49 -96
-206 -102 -267 -8 -16 24 -18 53 -18 264 0 224 1 239 21 266 27 37 80 63 129
63 22 0 56 -8 75 -18z m-2010 -37 l0 -45 -50 0 -50 0 0 -275 0 -275 -50 0 -50
0 -2 273 -3 272 -52 3 -53 3 0 45 0 44 155 0 155 0 0 -45z m301 28 c42 -25 59
-69 59 -152 0 -76 -19 -137 -45 -147 -14 -6 -12 -11 11 -35 29 -30 28 -28 37
-212 l4 -78 -51 3 -51 3 -5 113 c-5 125 -14 142 -72 142 l-28 0 0 -130 0 -130
-50 0 -50 0 0 320 0 320 106 0 c82 0 112 -4 135 -17z m382 -98 c10 -60 33
-203 51 -317 l33 -208 -53 0 -53 0 -6 55 -7 55 -63 0 -64 0 -6 -55 -7 -55 -49
0 c-47 0 -48 1 -44 28 5 28 64 397 86 535 l12 78 76 -3 76 -3 18 -110z m384
95 c59 -36 63 -55 63 -300 0 -239 -3 -258 -56 -299 -24 -19 -40 -21 -140 -21
l-114 0 0 320 0 320 108 0 c88 0 113 -3 139 -20z m243 -300 l0 -320 -55 0 -55
0 0 320 0 320 55 0 55 0 0 -320z m250 158 c24 -90 47 -170 51 -178 5 -8 9 65
9 163 l0 177 45 0 45 0 0 -320 0 -320 -53 0 -53 0 -60 218 -59 217 -3 -217 -2
-218 -45 0 -45 0 0 320 0 320 64 0 63 0 43 -162z m677 -1395 c-2 -37 -3 -9 -3
62 0 72 1 102 3 68 2 -34 2 -93 0 -130z m-2618 -592 c57 -40 66 -65 66 -174
-1 -78 -5 -110 -18 -135 -26 -48 -71 -72 -135 -72 -109 0 -152 58 -152 204 0
88 14 141 46 167 48 39 145 45 193 10z m1745 23 c10 -4 16 -18 16 -40 0 -41
-15 -47 -121 -42 l-74 3 0 -40 0 -40 63 -3 62 -3 0 -34 0 -35 -65 0 -65 0 0
-45 0 -44 98 -3 97 -3 0 -35 0 -35 -140 0 -140 0 -3 197 -2 197 87 4 c49 1
107 4 130 5 23 1 48 -1 57 -4z m347 -17 c58 -38 66 -150 15 -194 -14 -12 -26
-27 -26 -33 0 -6 16 -42 35 -80 19 -38 35 -72 35 -75 0 -3 -22 -5 -48 -5 l-48
0 -34 80 c-31 73 -36 80 -62 80 l-28 0 0 -81 0 -80 -42 3 -43 3 -3 194 c-2
149 1 197 10 203 7 5 58 7 113 6 75 -3 107 -8 126 -21z m-2609 -57 c17 -38 34
-70 38 -70 3 0 21 32 40 70 l34 70 43 0 c24 0 43 -2 43 -5 0 -3 -27 -59 -60
-125 -57 -114 -60 -123 -60 -195 l0 -75 -40 0 -40 0 0 75 c0 77 -12 112 -101
288 l-19 37 45 0 46 0 31 -70z m758 -72 c0 -79 4 -148 8 -154 26 -40 97 -38
113 3 5 13 9 85 9 159 l0 135 43 -3 42 -3 0 -150 c0 -129 -3 -155 -18 -178
-56 -85 -193 -91 -256 -11 -19 25 -21 40 -21 185 l0 159 40 0 40 0 0 -142z
m571 114 c39 -35 50 -102 25 -150 -9 -18 -20 -32 -24 -32 -4 0 -13 -4 -20 -8
-9 -7 -4 -26 23 -85 19 -41 35 -80 35 -86 0 -6 -18 -11 -41 -11 l-40 0 -40 86
c-34 73 -43 85 -62 82 -20 -3 -22 -9 -25 -85 l-3 -83 -38 0 c-26 0 -41 5 -45
16 -8 21 -8 369 1 377 3 4 55 7 115 7 104 0 109 -1 139 -28z m545 -6 c30 -30
34 -40 34 -84 0 -86 -58 -132 -167 -132 l-43 0 0 -76 0 -75 -42 3 -43 3 -3
185 c-1 101 0 190 2 197 4 10 35 13 117 13 l111 0 34 -34z m8739 -58 c4 -3 2
-9 -3 -12 -5 -3 -15 1 -21 8 -10 11 -9 14 3 12 9 -1 18 -5 21 -8z m-7508 -155
c-2 -27 -3 -5 -3 47 0 52 1 74 3 48 2 -27 2 -69 0 -95z m7544 100 c13 -16 12
-17 -3 -4 -10 7 -18 15 -18 17 0 8 8 3 21 -13z m63 -55 c-3 -5 -12 -4 -20 3
-7 6 -11 15 -8 21 3 5 12 4 20 -3 7 -6 11 -15 8 -21z m-8361 -422 c45 -18 87
-71 87 -107 0 -28 -2 -29 -45 -29 -38 0 -45 3 -45 19 0 22 -35 51 -62 51 -10
0 -27 -9 -38 -20 -17 -17 -20 -33 -20 -110 0 -77 3 -93 20 -110 38 -38 100
-16 100 36 0 21 -5 24 -35 24 -33 0 -35 2 -35 35 l0 35 80 0 80 0 0 -70 c0
-63 -3 -72 -30 -104 -72 -82 -207 -69 -255 24 -21 40 -21 220 0 260 35 67 125
97 198 66z m547 -6 c42 -22 70 -63 70 -105 0 -23 -4 -25 -43 -25 -38 0 -44 3
-54 30 -20 52 -98 52 -98 0 0 -19 11 -27 60 -47 92 -38 109 -49 128 -87 49
-95 -52 -185 -180 -161 -64 12 -112 62 -113 118 0 25 2 27 45 27 33 0 45 -4
45 -15 0 -43 82 -73 110 -40 23 28 6 48 -65 76 -81 33 -135 83 -135 126 0 97
129 154 230 103z m-2640 -24 l0 -35 -52 -3 -53 -3 -3 -162 -2 -163 -40 0 -40
0 -2 163 -3 162 -52 3 -53 3 0 35 0 34 150 0 150 0 0 -34z m351 -4 c24 -27 29
-41 29 -83 0 -46 -4 -55 -34 -83 l-33 -32 33 -65 c45 -87 44 -99 -6 -99 l-40
0 -36 80 c-31 67 -41 80 -60 80 -22 0 -24 -4 -24 -57 0 -92 -6 -103 -51 -103
l-39 0 0 201 0 201 116 -4 116 -3 29 -33z m352 -9 c8 -27 35 -113 61 -192 25
-80 46 -148 46 -153 0 -4 -20 -8 -44 -8 -41 0 -45 2 -51 30 l-7 30 -73 0 -73
0 -7 -30 c-6 -28 -10 -30 -51 -30 -24 0 -44 4 -44 9 0 5 24 85 54 178 30 92
57 178 61 191 6 19 13 22 60 22 l53 0 15 -47z m423 31 c53 -25 64 -57 64 -183
0 -174 -18 -194 -182 -199 l-108 -4 0 201 0 201 96 0 c68 0 106 -5 130 -16z
m244 -185 l0 -200 -42 3 -43 3 -3 185 c-1 101 0 190 2 197 3 8 22 13 46 13
l40 0 0 -201z m259 84 l71 -118 0 118 0 118 43 -3 42 -3 0 -195 0 -195 -41 -3
-41 -3 -69 117 -69 117 -3 -117 -3 -117 -42 3 -42 3 -3 185 c-1 101 0 190 2
197 3 8 22 13 45 13 l40 0 70 -117z"/>
<path d="M2787 6520 c-3 -8 -17 -98 -31 -200 -15 -102 -29 -197 -32 -212 l-6
-28 72 0 72 0 -7 48 c-4 26 -20 128 -35 227 -15 99 -30 173 -33 165z"/>
<path d="M2365 5305 l-25 -24 0 -314 c0 -303 1 -315 21 -341 25 -32 75 -35
110 -7 l24 19 3 294 c2 161 0 308 -3 326 -13 70 -83 95 -130 47z"/>
<path d="M4879 5311 l-24 -19 0 -327 0 -327 24 -19 c35 -28 85 -25 111 8 20
26 21 34 18 346 l-3 319 -24 19 c-30 24 -72 24 -102 0z"/>
<path d="M2930 5170 l0 -150 50 0 c41 0 56 5 76 25 25 25 26 29 22 136 -4 130
-10 139 -95 139 l-53 0 0 -150z"/>
<path d="M4030 4965 l0 -355 55 0 c46 0 60 4 80 25 l25 24 0 306 0 306 -25 24
c-20 21 -34 25 -80 25 l-55 0 0 -355z"/>
<path d="M4200 3730 l0 -100 30 0 c48 0 70 30 70 98 0 74 -18 102 -66 102
l-34 0 0 -100z"/>
<path d="M4621 3775 c-1 -5 -10 -66 -21 -135 -27 -170 -28 -160 25 -160 36 0
45 3 45 18 -1 25 -47 289 -49 277z"/>
<path d="M4964 3817 c-2 -7 -3 -109 -2 -227 l3 -215 36 -3 c66 -6 69 3 69 228
0 167 -2 201 -16 214 -19 19 -83 21 -90 3z"/>
<path d="M3526 1701 c-14 -15 -16 -36 -14 -117 3 -94 4 -99 29 -113 34 -19 73
-8 87 24 18 39 15 176 -4 203 -19 28 -74 30 -98 3z"/>
<path d="M5590 1670 l0 -41 58 3 57 3 0 35 0 35 -57 3 -58 3 0 -41z"/>
<path d="M4302 1673 c3 -45 5 -48 34 -51 52 -5 84 13 84 47 0 37 -23 51 -80
51 l-41 0 3 -47z"/>
<path d="M4840 1670 l0 -50 48 0 c55 0 72 12 72 52 0 33 -24 48 -79 48 l-41 0
0 -50z"/>
<path d="M3579 1098 c0 -2 -1 -24 -2 -51 l-2 -47 46 0 c74 0 107 58 49 87 -21
11 -89 18 -91 11z"/>
<path d="M4012 990 c-12 -41 -22 -78 -22 -82 0 -5 20 -8 45 -8 25 0 45 3 45 8
0 4 -10 41 -23 82 l-23 75 -22 -75z"/>
<path d="M4382 968 l3 -123 37 -3 c29 -3 43 2 63 22 22 23 25 33 25 103 0 104
-13 123 -81 123 l-50 0 3 -122z"/>
<path d="M12810 5739 c-64 -7 -652 -118 -658 -124 -2 -2 18 -15 45 -29 42 -21
56 -23 89 -16 155 36 372 70 441 70 200 0 405 -123 495 -296 19 -38 38 -82 42
-98 4 -15 10 -26 13 -22 3 3 -2 27 -13 53 -20 52 -21 55 -23 78 0 8 -9 23 -18
33 -26 27 -56 89 -49 100 4 6 1 14 -5 18 -7 4 -9 3 -5 -4 3 -6 2 -13 -4 -17
-11 -7 -33 42 -26 59 3 7 5 6 5 -1 1 -7 11 -13 22 -13 24 0 81 -54 71 -66 -4
-4 -2 -4 5 0 8 4 15 -3 19 -20 4 -15 16 -38 28 -51 12 -13 31 -54 43 -91 24
-74 31 -65 9 13 -18 66 -52 139 -72 155 -8 8 -22 26 -30 42 -13 24 -12 27 1
22 23 -9 19 1 -21 53 -48 63 -113 107 -193 132 -82 25 -128 29 -211 20z m277
-151 c11 -13 23 -32 27 -43 6 -17 4 -16 -19 5 -30 28 -50 60 -37 60 5 0 18
-10 29 -22z"/>
<path d="M13281 5194 c0 -11 3 -14 6 -6 3 7 2 16 -1 19 -3 4 -6 -2 -5 -13z"/>
<path d="M13293 5065 c0 -27 2 -38 4 -22 2 15 2 37 0 50 -2 12 -4 0 -4 -28z"/>
<path d="M13304 4755 c0 -71 1 -99 3 -62 2 37 2 96 0 130 -2 34 -3 4 -3 -68z"/>
<path d="M8673 4715 c-19 -8 -34 -23 -38 -37 -7 -34 -15 -487 -8 -520 5 -27 7
-28 24 -12 12 10 19 31 19 53 0 20 0 44 0 54 1 9 0 32 -1 50 -1 39 3 60 14 68
5 4 9 17 8 30 -1 37 0 48 2 151 2 91 8 117 20 86 3 -7 4 -3 4 10 -1 12 -5 22
-9 22 -12 0 -9 35 4 48 16 16 1 15 -39 -3z"/>
<path d="M10570 4481 c-17 -26 -30 -37 -42 -33 -10 2 -18 -1 -18 -7 0 -7 5 -9
11 -5 7 4 10 3 7 -2 -2 -5 -12 -26 -21 -46 -10 -21 -22 -38 -28 -38 -14 0 -49
-79 -49 -112 0 -15 -4 -29 -10 -33 -5 -3 -7 -12 -4 -20 4 -8 -1 -18 -10 -21
-12 -5 -14 -10 -6 -19 8 -9 7 -17 -2 -26 -16 -16 -45 -160 -54 -269 -4 -41 -8
-170 -8 -287 -1 -116 -4 -214 -8 -218 -4 -4 -4 -14 -1 -23 4 -13 2 -13 -9 2
-8 10 -20 16 -26 12 -7 -4 -12 -1 -12 7 0 7 -9 22 -19 34 -10 11 -21 28 -22
38 -2 10 -8 17 -14 16 -5 -2 -8 -8 -6 -14 7 -20 2 -50 -8 -57 -12 -7 -6 -49 9
-64 20 -20 10 -26 -11 -7 -13 12 -19 26 -15 36 3 9 2 13 -4 10 -15 -9 -12 -27
21 -132 134 -420 417 -740 760 -857 197 -67 473 -68 606 -2 41 20 107 50 114
50 14 2 85 43 97 56 12 13 13 13 7 0 -5 -12 -4 -12 7 1 7 8 20 18 29 21 30 12
217 169 285 240 38 40 93 107 122 148 50 70 42 65 -42 -30 l-31 -35 -7 100
c-8 111 -8 129 -3 534 2 156 6 285 9 288 9 9 48 -19 43 -31 -3 -7 1 -52 8
-102 8 -49 15 -105 18 -124 2 -19 5 29 5 106 2 170 -5 186 -93 204 -81 17
-227 -1 -269 -33 l-31 -25 0 -583 0 -582 -31 -13 -32 -13 0 187 c0 103 -5 308
-10 456 -11 292 -14 302 -73 334 -33 18 -211 10 -261 -12 -75 -32 -72 -9 -65
-552 5 -379 4 -484 -6 -483 -6 1 -23 4 -37 8 l-24 7 2 129 c2 72 -4 321 -12
555 -9 234 -16 485 -16 558 l0 134 -30 30 -31 30 -102 -4 c-115 -4 -175 -25
-192 -68 -7 -16 -8 -221 -5 -588 3 -309 2 -562 -1 -562 -4 0 -24 19 -46 43
l-40 43 -6 184 c-4 101 -7 234 -7 297 0 178 -18 197 -176 191 -55 -2 -106 -8
-115 -12 -21 -9 -26 3 -44 118 -17 105 -21 421 -5 431 6 3 16 0 24 -8 8 -7 38
-29 67 -48 65 -41 130 -45 196 -11 53 27 230 175 216 179 -6 2 -41 -19 -79
-47 -60 -45 -152 -95 -160 -87 -7 7 67 89 141 156 136 123 204 151 287 117 29
-12 153 -97 168 -115 3 -3 41 -38 85 -77 190 -169 218 -158 563 223 56 62 102
118 102 124 0 17 -32 -13 -103 -96 -90 -105 -244 -263 -290 -296 -44 -32 -74
-36 -115 -15 -15 8 -92 66 -171 130 -163 131 -224 166 -289 166 -62 0 -110
-27 -251 -140 -67 -54 -136 -104 -152 -110 -38 -16 -83 -4 -161 45 -51 32 -58
40 -58 68 1 53 53 268 84 341 22 52 15 55 -14 7z m610 -730 c0 -42 10 -66 21
-49 13 19 14 -124 5 -377 -8 -205 -12 -232 -31 -232 -8 0 -12 3 -10 7 2 3 -9
22 -26 41 -16 19 -29 44 -29 57 0 13 -6 22 -15 22 -9 0 -18 7 -21 15 -4 8 -10
13 -14 10 -11 -7 -25 14 -40 65 -7 25 -18 50 -23 57 -13 18 -16 87 -3 95 8 5
7 11 -3 20 -12 11 -13 10 -6 -2 6 -12 5 -12 -5 -3 -10 9 -9 15 4 29 10 9 15
23 12 30 -3 8 0 14 7 14 9 0 9 2 -1 8 -9 6 -7 13 8 30 11 11 20 26 20 32 0 6
7 13 15 16 13 5 13 9 3 22 -10 12 -10 14 0 8 6 -4 12 -2 12 3 0 6 11 11 25 11
14 0 28 7 31 15 4 8 10 13 14 10 5 -3 6 5 2 17 -3 14 -2 19 6 14 7 -4 12 -5
12 -2 0 2 3 12 7 22 5 13 3 15 -7 9 -9 -5 -11 -4 -6 3 14 23 36 13 36 -17z
m933 -566 c-9 -7 -25 -10 -35 -7 -26 6 -15 17 21 18 27 1 29 -1 14 -11z m-9
-26 c10 16 26 13 26 -5 0 -8 -4 -12 -10 -9 -5 3 -10 -1 -10 -9 0 -9 6 -13 15
-10 11 5 13 0 6 -23 -4 -15 -6 -46 -4 -68 1 -22 0 -34 -3 -26 -5 10 -8 10 -14
1 -5 -8 -11 -1 -18 18 -9 27 -8 30 5 25 12 -5 14 -3 8 6 -4 8 -2 17 6 22 10 6
8 8 -8 6 -12 0 -20 -4 -19 -7 4 -8 -27 -35 -41 -35 -6 0 -15 4 -20 9 -5 5 -2
6 6 1 11 -6 13 -3 9 13 -4 15 -2 19 8 15 8 -3 14 1 14 9 0 15 -37 17 -61 3 -7
-5 -5 1 5 14 15 16 22 18 28 9 5 -9 11 -10 16 -3 4 6 17 10 30 9 18 -1 20 2
11 12 -6 8 -16 11 -23 7 -6 -4 -5 1 3 11 10 12 16 14 21 5 6 -8 9 -8 14 0z
m-54 -3 c0 -2 -7 -7 -16 -10 -8 -3 -12 -2 -9 4 6 10 25 14 25 6z"/>
<path d="M11075 3661 c-3 -5 0 -13 6 -17 7 -4 9 -3 5 4 -3 5 0 13 6 15 9 4 10
6 1 6 -6 1 -14 -3 -18 -8z"/>
<path d="M13314 4340 c0 -80 2 -112 3 -72 2 39 2 105 0 145 -1 39 -3 7 -3 -73z"/>
<path d="M12094 4302 c-19 -31 -70 -85 -251 -266 -160 -160 -235 -201 -306
-165 -21 11 -21 11 -5 -7 13 -13 37 -19 82 -22 56 -4 71 -1 117 24 29 16 86
63 128 104 109 107 315 340 308 347 -4 3 -18 7 -31 8 -18 2 -30 -4 -42 -23z"/>
<path d="M13359 4283 c-1 -27 0 -52 1 -58 1 -5 2 -17 1 -25 -7 -68 -4 -857 3
-852 5 3 5 -1 0 -9 -13 -22 -4 -82 17 -105 26 -28 24 -43 -8 -55 -21 -8 -24
-12 -13 -19 11 -7 11 -14 3 -32 -8 -18 -7 -28 4 -43 8 -11 12 -28 9 -38 -5
-22 2 -47 15 -47 4 0 5 7 2 17 -4 11 -3 14 5 9 7 -4 12 -3 12 3 0 5 -4 13 -10
16 -13 8 -13 48 1 62 6 6 9 19 6 29 -4 15 -5 14 -6 -4 0 -13 -6 -20 -11 -17
-11 7 -3 54 11 70 17 18 2 987 -17 1113 -7 48 -24 39 -25 -15z"/>
<path d="M9380 4205 c-13 -14 -21 -27 -18 -30 10 -10 58 14 58 29 0 26 -16 26
-40 1z"/>
<path d="M11070 4162 c-29 -10 -80 -54 -74 -64 3 -5 19 3 35 18 16 15 36 29
45 30 9 1 18 5 21 7 8 8 -11 15 -27 9z"/>
<path d="M8658 4103 c7 -3 16 -2 19 1 4 3 -2 6 -13 5 -11 0 -14 -3 -6 -6z"/>
<path d="M9363 4063 c9 -2 23 -2 30 0 6 3 -1 5 -18 5 -16 0 -22 -2 -12 -5z"/>
<path d="M10047 4010 c-50 -55 -91 -119 -82 -128 12 -12 125 118 125 144 0 13
-2 24 -4 24 -2 0 -20 -18 -39 -40z"/>
<path d="M13322 3980 c0 -14 2 -19 5 -12 2 6 2 18 0 25 -3 6 -5 1 -5 -13z"/>
<path d="M9686 3942 c-10 -17 32 -44 76 -49 l43 -4 -44 21 c-25 11 -50 25 -57
31 -7 6 -15 6 -18 1z"/>
<path d="M9415 3750 c-26 -7 -23 -8 21 -9 84 -2 88 -9 92 -156 l4 -126 39 -24
c21 -14 42 -25 45 -25 4 0 4 69 1 153 -6 148 -7 153 -32 175 -21 18 -37 22
-83 21 -31 -1 -70 -5 -87 -9z"/>
<path d="M10068 3609 c-14 -8 -15 -15 -8 -35 6 -14 8 -29 5 -34 -3 -5 0 -12 6
-15 6 -4 15 -17 20 -29 6 -14 7 3 3 49 -4 39 -7 71 -8 72 -1 1 -9 -3 -18 -8z"/>
<path d="M13332 3510 c0 -19 2 -27 5 -17 2 9 2 25 0 35 -3 9 -5 1 -5 -18z"/>
<path d="M13553 3465 c0 -38 2 -53 4 -32 2 20 2 52 0 70 -2 17 -4 1 -4 -38z"/>
<path d="M13333 3385 c0 -22 2 -30 4 -17 2 12 2 30 0 40 -3 9 -5 -1 -4 -23z"/>
<path d="M9750 3398 l-35 -11 40 -12 c23 -7 41 -19 43 -29 2 -9 8 -14 13 -11
5 4 9 2 9 -4 0 -6 7 -8 16 -4 9 3 20 0 25 -8 7 -11 9 -10 11 6 6 61 15 -226
16 -527 l2 -347 -42 -11 c-84 -21 -113 -36 -135 -69 -23 -33 -29 -74 -17 -105
6 -14 13 -13 58 12 28 16 63 32 79 36 22 5 27 12 27 37 0 16 6 42 14 57 29 56
63 78 273 179 33 15 59 43 110 113 38 51 72 98 77 105 10 13 -51 145 -66 145
-5 0 -8 -44 -8 -98 0 -88 -2 -101 -24 -131 -25 -34 -33 -39 -165 -109 l-81
-42 0 147 c0 82 -3 260 -7 398 -6 242 -7 250 -29 272 -20 20 -33 23 -96 22
-40 0 -89 -6 -108 -11z"/>
<path d="M8384 3091 c-124 -60 -235 -149 -424 -340 l-175 -176 344 -3 c189 -1
346 -1 348 1 2 2 6 129 10 281 5 238 4 276 -8 276 -8 0 -51 -17 -95 -39z"/>
<path d="M13564 3035 c0 -55 1 -76 3 -47 2 29 2 74 0 100 -2 26 -3 2 -3 -53z"/>
<path d="M9182 2937 c4 -56 10 -203 13 -326 5 -219 6 -226 30 -255 l24 -31 1
343 c0 188 -2 342 -4 342 -2 0 -19 6 -37 14 l-34 14 7 -101z"/>
<path d="M13390 2970 c0 -5 5 -10 11 -10 5 0 7 5 4 10 -3 6 -8 10 -11 10 -2 0
-4 -4 -4 -10z"/>
<path d="M13344 2885 c0 -49 1 -71 3 -48 2 23 2 64 0 90 -2 26 -3 8 -3 -42z"/>
<path d="M13370 2886 c0 -14 5 -28 10 -31 6 -4 10 5 8 24 -3 37 -18 42 -18 7z"/>
<path d="M9540 2680 c0 -125 -4 -180 -14 -205 -8 -18 -12 -36 -8 -39 13 -14
55 -4 77 19 25 24 25 26 25 210 l0 185 -40 0 -40 0 0 -170z"/>
<path d="M13342 2755 c0 -16 2 -22 5 -12 2 9 2 23 0 30 -3 6 -5 -1 -5 -18z"/>
<path d="M10452 2649 c15 -23 15 -27 -3 -50 -10 -13 -19 -28 -19 -32 0 -4 -18
-32 -40 -62 -39 -53 -40 -57 -46 -152 -5 -91 -4 -97 12 -81 10 9 24 57 35 119
16 89 23 108 49 134 l30 30 0 -40 c-1 -22 -9 -89 -20 -150 -17 -106 -18 -111
0 -145 9 -20 21 -51 25 -70 l8 -35 17 60 c31 110 110 217 167 228 27 5 38 0
79 -36 26 -23 50 -41 53 -39 3 1 9 -14 12 -35 6 -38 6 -38 8 -5 0 17 6 32 11
32 6 0 37 -13 70 -30 80 -40 180 -77 265 -98 88 -21 396 -25 417 -4 6 6 24 12
39 12 26 0 58 25 46 36 -3 3 -20 1 -39 -3 -52 -15 -388 -16 -455 -3 -96 19
-224 62 -288 95 -154 81 -210 122 -354 260 -52 49 -88 78 -79 64z"/>
<path d="M13354 2180 c0 -85 2 -120 3 -77 2 42 2 112 0 155 -1 42 -3 7 -3 -78z"/>
<path d="M13583 2200 c0 -25 2 -35 4 -22 2 12 2 32 0 45 -2 12 -4 2 -4 -23z"/>
<path d="M11748 2178 c-32 -11 -35 -32 -14 -90 10 -27 10 -38 2 -42 -6 -2 3
-5 19 -5 29 -1 31 2 35 37 10 109 6 118 -42 100z"/>
<path d="M12125 2168 c-33 -5 -79 -7 -102 -6 -67 5 -50 -9 20 -16 66 -7 151 4
170 23 13 13 1 13 -88 -1z"/>
<path d="M11672 2130 c0 -19 2 -27 5 -17 2 9 2 25 0 35 -3 9 -5 1 -5 -18z"/>
<path d="M13583 2110 c0 -25 2 -35 4 -22 2 12 2 32 0 45 -2 12 -4 2 -4 -23z"/>
<path d="M10247 2134 c-4 -4 -7 -19 -6 -33 l0 -26 10 24 c10 26 8 47 -4 35z"/>
<path d="M11749 1973 c-9 -2 -23 -20 -33 -39 -15 -32 -16 -66 -10 -332 7 -322
11 -341 63 -361 14 -5 71 -12 126 -16 55 -3 116 -8 135 -11 23 -3 29 -1 17 4
-10 4 -18 12 -18 17 1 6 -3 10 -8 10 -18 0 -23 14 -10 29 8 8 19 22 26 30 7 8
17 16 24 18 7 2 9 10 5 17 -6 9 -11 9 -19 -3 -10 -13 -13 -4 -15 44 -2 56 7
75 24 48 4 -6 2 -14 -4 -16 -18 -6 -14 -32 4 -32 12 0 15 7 12 30 -4 26 -2 30
16 28 13 -2 21 3 21 12 0 8 -7 15 -15 16 -8 1 -25 2 -38 2 -25 2 -26 27 -2 27
21 0 38 34 21 44 -11 7 -11 10 1 17 17 10 33 64 20 64 -5 0 -8 10 -7 23 2 16
7 21 21 19 10 -2 22 -9 26 -15 8 -13 11 2 8 41 -1 12 4 22 11 22 7 0 9 3 6 6
-4 4 8 19 25 34 36 32 31 54 -10 40 -26 -10 -26 -9 -7 5 11 9 28 14 38 11 21
-5 79 44 60 51 -19 7 -28 4 -28 -9 0 -6 -6 -13 -12 -15 -17 -6 -16 9 1 32 10
14 24 19 48 17 29 -3 39 2 61 31 l26 34 -57 7 c-127 16 -516 29 -553 19z m384
-273 c-3 -11 -9 -17 -14 -15 -10 7 -1 35 11 35 5 0 6 -9 3 -20z"/>
<path d="M13364 1840 c0 -58 1 -81 3 -52 2 28 2 76 0 105 -2 28 -3 5 -3 -53z"/>
<path d="M6352 1595 c-1 -44 2 -85 6 -92 4 -7 6 20 4 60 -5 108 -9 122 -10 32z"/>
<path d="M13896 1561 c-4 -5 -2 -12 3 -15 5 -4 12 -2 15 3 4 5 2 12 -3 15 -5
4 -12 2 -15 -3z"/>
<path d="M13361 1508 c-2 -58 -29 -175 -51 -218 -11 -21 -20 -43 -20 -47 0
-14 61 98 76 140 16 44 30 176 15 142 l-8 -20 -5 20 c-4 12 -6 6 -7 -17z"/>
<path d="M13986 1472 c-3 -6 1 -15 8 -21 8 -7 17 -8 20 -3 3 6 -1 15 -8 21 -8
7 -17 8 -20 3z"/>
<path d="M6278 1320 c3 -119 5 -129 23 -135 11 -4 23 -4 26 -1 4 3 -1 6 -10 6
-15 0 -17 14 -18 110 -2 130 -1 126 -14 139 -7 7 -9 -33 -7 -119z"/>
<path d="M6683 1383 c9 -2 25 -2 35 0 9 3 1 5 -18 5 -19 0 -27 -2 -17 -5z"/>
<path d="M6393 1373 c9 -2 25 -2 35 0 9 3 1 5 -18 5 -19 0 -27 -2 -17 -5z"/>
<path d="M14136 1322 c-3 -6 1 -15 8 -21 8 -7 17 -8 20 -3 3 6 -1 15 -8 21 -8
7 -17 8 -20 3z"/>
<path d="M13260 1195 c-7 -9 -11 -17 -9 -20 3 -2 10 5 17 15 14 24 10 26 -8 5z"/>
<path d="M14286 1172 c-3 -6 1 -15 8 -21 8 -7 17 -8 20 -3 3 6 -1 15 -8 21 -8
7 -17 8 -20 3z"/>
<path d="M6312 1084 c-12 -8 -22 -20 -22 -26 0 -7 6 -4 13 5 6 9 23 21 37 26
14 5 18 10 10 10 -9 1 -26 -6 -38 -15z"/>
<path d="M6370 1086 c0 -2 8 -10 18 -17 15 -13 16 -12 3 4 -13 16 -21 21 -21
13z"/>
<path d="M14385 1071 c-3 -5 -1 -12 5 -16 5 -3 10 1 10 9 0 18 -6 21 -15 7z"/>
<path d="M6504 970 c0 -52 1 -74 3 -47 2 26 2 68 0 95 -2 26 -3 4 -3 -48z"/>
<path d="M6403 970 c0 -47 2 -66 4 -42 2 23 2 61 0 85 -2 23 -4 4 -4 -43z"/>
<path d="M12088 993 c6 -2 18 -2 25 0 6 3 1 5 -13 5 -14 0 -19 -2 -12 -5z"/>
<path d="M12533 943 c9 -2 23 -2 30 0 6 3 -1 5 -18 5 -16 0 -22 -2 -12 -5z"/>
<path d="M12898 943 c7 -3 16 -2 19 1 4 3 -2 6 -13 5 -11 0 -14 -3 -6 -6z"/>
<path d="M12620 930 c45 -9 167 -13 159 -6 -2 2 -49 6 -104 9 -67 3 -85 2 -55
-3z"/>
<path d="M12820 930 c-20 -6 -21 -8 -5 -8 11 0 31 4 45 8 20 6 21 8 5 8 -11 0
-31 -4 -45 -8z"/>
<path d="M6290 884 c0 -13 18 -39 24 -34 2 3 -2 14 -10 24 -8 11 -14 16 -14
10z"/>
<path d="M6318 753 c12 -2 32 -2 45 0 12 2 2 4 -23 4 -25 0 -35 -2 -22 -4z"/>
</g>
</svg>
